<svg version="1.1" xmlns="http://www.w3.org/2000/svg" xmlns:xlink="http://www.w3.org/1999/xlink" width="207.16075" height="199.09266" viewBox="0,0,207.16075,199.09266"><g transform="translate(-136.41962,-80.45367)"><g data-paper-data="{&quot;isPaintingLayer&quot;:true}" fill="#9966ff" fill-rule="nonzero" stroke="#000000" stroke-width="2" stroke-linecap="butt" stroke-linejoin="miter" stroke-miterlimit="10" stroke-dasharray="" stroke-dashoffset="0" style="mix-blend-mode: normal"><path d="M342.58038,180c0,54.42563 -45.9268,98.54633 -102.58038,98.54633c-56.65358,0 -102.58038,-44.12068 -102.58038,-98.54633c0,-54.42563 45.9268,-98.54633 102.58038,-98.54633c56.65358,0 102.58038,44.12068 102.58038,98.54633zM239.64006,223.34798c21.84368,0 39.5515,-18.09051 39.5515,-40.4063c0,-22.31579 -17.70781,-40.4063 -39.5515,-40.4063c-21.84368,0 -39.5515,18.09051 -39.5515,40.4063c0,22.31579 17.70781,40.4063 39.5515,40.4063z"/><path d="M264.78065,182.59333c0,12.25372 -11.22368,22.18733 -25.0688,22.18733c-13.84512,0 -25.0688,-9.93361 -25.0688,-22.18733c0,-12.25372 11.22368,-22.18733 25.0688,-22.18733c13.84512,0 25.0688,9.93361 25.0688,22.18733zM239.42371,192.40077c5.57564,0 10.09558,-4.51994 10.09558,-10.09558c0,-5.57564 -4.51994,-10.09558 -10.09558,-10.09558c-5.57564,0 -10.09558,4.51994 -10.09558,10.09558c0,5.57564 4.51994,10.09558 10.09558,10.09558z"/></g></g></svg>